<svg width="1200" height="1200" viewBox="0 0 1200 1200" fill="none" xmlns="http://www.w3.org/2000/svg">
<path d="M741.158 1025.07L741.333 1025.01L603.085 866.08C601.878 866.096 600.669 866.105 599.458 866.105C455.904 866.105 339.531 749.871 339.531 606.49C339.531 463.108 455.904 346.875 599.458 346.875C743.013 346.875 859.386 463.108 859.386 606.49C859.386 650.766 848.289 692.454 828.721 728.93L829.061 728.725L956.244 871.971C1014.37 796.318 1048.92 701.648 1048.92 598.918C1048.92 350.987 847.688 150 599.458 150C351.229 150 150 350.987 150 598.918C150 831.882 327.669 1023.4 555.054 1045.67H759.206L741.158 1025.07Z" fill="#2B2B2B"/>
<path d="M760.289 722.776L540.433 723.316L824.188 1048.38L1050 1050L760.289 722.776Z" fill="#2B2B2B"/>
</svg>
