<svg width="6800" height="1200" viewBox="0 0 6800 1200" fill="none" xmlns="http://www.w3.org/2000/svg">
<g clip-path="url(#clip0_23_3)">
<path d="M654.836 862.955L654.997 862.901L527.349 715.977C526.234 715.992 525.118 716 524 716C391.452 716 284 608.548 284 476C284 343.452 391.452 236 524 236C656.548 236 764 343.452 764 476C764 516.931 753.753 555.469 735.686 589.189L736 589L853.432 721.423C907.1 651.486 939 563.968 939 469C939 239.802 753.198 54 524 54C294.802 54 109 239.802 109 469C109 684.363 273.048 861.41 483 882H671.5L654.836 862.955Z" fill="#2B2B2B"/>
<path d="M672.5 583.5L469.5 584L731.5 884.5L940 886L672.5 583.5Z" fill="#2B2B2B"/>
<path d="M1564 332V886H1423V816C1405 840 1381.33 859 1352 873C1323.33 886.333 1292 893 1258 893C1214.67 893 1176.33 884 1143 866C1109.67 847.333 1083.33 820.333 1064 785C1045.33 749 1036 706.333 1036 657V332H1176V637C1176 681 1187 715 1209 739C1231 762.333 1261 774 1299 774C1337.67 774 1368 762.333 1390 739C1412 715 1423 681 1423 637V332H1564ZM1666.13 607C1666.13 551 1677.13 501.333 1699.13 458C1721.8 414.667 1752.13 381.333 1790.13 358C1828.8 334.667 1871.8 323 1919.13 323C1960.47 323 1996.47 331.333 2027.13 348C2058.47 364.667 2083.47 385.667 2102.13 411V332H2243.13V886H2102.13V805C2084.13 831 2059.13 852.667 2027.13 870C1995.8 886.667 1959.47 895 1918.13 895C1871.47 895 1828.8 883 1790.13 859C1752.13 835 1721.8 801.333 1699.13 758C1677.13 714 1666.13 663.667 1666.13 607ZM2102.13 609C2102.13 575 2095.47 546 2082.13 522C2068.8 497.333 2050.8 478.667 2028.13 466C2005.47 452.667 1981.13 446 1955.13 446C1929.13 446 1905.13 452.333 1883.13 465C1861.13 477.667 1843.13 496.333 1829.13 521C1815.8 545 1809.13 573.667 1809.13 607C1809.13 640.333 1815.8 669.667 1829.13 695C1843.13 719.667 1861.13 738.667 1883.13 752C1905.8 765.333 1929.8 772 1955.13 772C1981.13 772 2005.47 765.667 2028.13 753C2050.8 739.667 2068.8 721 2082.13 697C2095.47 672.333 2102.13 643 2102.13 609ZM2686.87 324C2752.87 324 2806.2 345 2846.87 387C2887.53 428.333 2907.87 486.333 2907.87 561V886H2767.87V580C2767.87 536 2756.87 502.333 2734.87 479C2712.87 455 2682.87 443 2644.87 443C2606.2 443 2575.53 455 2552.87 479C2530.87 502.333 2519.87 536 2519.87 580V886H2379.87V332H2519.87V401C2538.53 377 2562.2 358.333 2590.87 345C2620.2 331 2652.2 324 2686.87 324ZM3204 447V715C3204 733.667 3208.33 747.333 3217 756C3226.33 764 3241.67 768 3263 768H3328V886H3240C3122 886 3063 828.667 3063 714V447H2997V332H3063V195H3204V332H3328V447H3204ZM3392.7 607C3392.7 551 3403.7 501.333 3425.7 458C3448.36 414.667 3478.7 381.333 3516.7 358C3555.36 334.667 3598.36 323 3645.7 323C3687.03 323 3723.03 331.333 3753.7 348C3785.03 364.667 3810.03 385.667 3828.7 411V332H3969.7V886H3828.7V805C3810.7 831 3785.7 852.667 3753.7 870C3722.36 886.667 3686.03 895 3644.7 895C3598.03 895 3555.36 883 3516.7 859C3478.7 835 3448.36 801.333 3425.7 758C3403.7 714 3392.7 663.667 3392.7 607ZM3828.7 609C3828.7 575 3822.03 546 3808.7 522C3795.36 497.333 3777.36 478.667 3754.7 466C3732.03 452.667 3707.7 446 3681.7 446C3655.7 446 3631.7 452.333 3609.7 465C3587.7 477.667 3569.7 496.333 3555.7 521C3542.36 545 3535.7 573.667 3535.7 607C3535.7 640.333 3542.36 669.667 3555.7 695C3569.7 719.667 3587.7 738.667 3609.7 752C3632.36 765.333 3656.36 772 3681.7 772C3707.7 772 3732.03 765.667 3754.7 753C3777.36 739.667 3795.36 721 3808.7 697C3822.03 672.333 3828.7 643 3828.7 609ZM4246.43 775H4476.43V886H4106.43V188H4246.43V775ZM4811.41 895C4758.08 895 4710.08 883.333 4667.41 860C4624.75 836 4591.08 802.333 4566.41 759C4542.41 715.667 4530.41 665.667 4530.41 609C4530.41 552.333 4542.75 502.333 4567.41 459C4592.75 415.667 4627.08 382.333 4670.41 359C4713.75 335 4762.08 323 4815.41 323C4868.75 323 4917.08 335 4960.41 359C5003.75 382.333 5037.75 415.667 5062.41 459C5087.75 502.333 5100.41 552.333 5100.41 609C5100.41 665.667 5087.41 715.667 5061.41 759C5036.08 802.333 5001.41 836 4957.41 860C4914.08 883.333 4865.41 895 4811.41 895ZM4811.41 773C4836.75 773 4860.41 767 4882.41 755C4905.08 742.333 4923.08 723.667 4936.41 699C4949.75 674.333 4956.41 644.333 4956.41 609C4956.41 556.333 4942.41 516 4914.41 488C4887.08 459.333 4853.41 445 4813.41 445C4773.41 445 4739.75 459.333 4712.41 488C4685.75 516 4672.41 556.333 4672.41 609C4672.41 661.667 4685.41 702.333 4711.41 731C4738.08 759 4771.41 773 4811.41 773ZM5420.11 323C5461.44 323 5497.78 331.333 5529.11 348C5560.44 364 5585.11 385 5603.11 411V332H5744.11V890C5744.11 941.333 5733.78 987 5713.11 1027C5692.44 1067.67 5661.44 1099.67 5620.11 1123C5578.78 1147 5528.78 1159 5470.11 1159C5391.44 1159 5326.78 1140.67 5276.11 1104C5226.11 1067.33 5197.78 1017.33 5191.11 954H5330.11C5337.44 979.333 5353.11 999.333 5377.11 1014C5401.78 1029.33 5431.44 1037 5466.11 1037C5506.78 1037 5539.78 1024.67 5565.11 1000C5590.44 976 5603.11 939.333 5603.11 890V804C5585.11 830 5560.11 851.667 5528.11 869C5496.78 886.333 5460.78 895 5420.11 895C5373.44 895 5330.78 883 5292.11 859C5253.44 835 5222.78 801.333 5200.11 758C5178.11 714 5167.11 663.667 5167.11 607C5167.11 551 5178.11 501.333 5200.11 458C5222.78 414.667 5253.11 381.333 5291.11 358C5329.78 334.667 5372.78 323 5420.11 323ZM5603.11 609C5603.11 575 5596.44 546 5583.11 522C5569.78 497.333 5551.78 478.667 5529.11 466C5506.44 452.667 5482.11 446 5456.11 446C5430.11 446 5406.11 452.333 5384.11 465C5362.11 477.667 5344.11 496.333 5330.11 521C5316.78 545 5310.11 573.667 5310.11 607C5310.11 640.333 5316.78 669.667 5330.11 695C5344.11 719.667 5362.11 738.667 5384.11 752C5406.78 765.333 5430.78 772 5456.11 772C5482.11 772 5506.44 765.667 5529.11 753C5551.78 739.667 5569.78 721 5583.11 697C5596.44 672.333 5603.11 643 5603.11 609ZM5951.84 266C5927.18 266 5906.51 258.333 5889.84 243C5873.84 227 5865.84 207.333 5865.84 184C5865.84 160.667 5873.84 141.333 5889.84 126C5906.51 110 5927.18 102 5951.84 102C5976.51 102 5996.84 110 6012.84 126C6029.51 141.333 6037.84 160.667 6037.84 184C6037.84 207.333 6029.51 227 6012.84 243C5996.84 258.333 5976.51 266 5951.84 266ZM6020.84 332V886H5880.84V332H6020.84ZM6123.16 609C6123.16 551.667 6134.83 501.667 6158.16 459C6181.5 415.667 6213.83 382.333 6255.16 359C6296.5 335 6343.83 323 6397.16 323C6465.83 323 6522.5 340.333 6567.16 375C6612.5 409 6642.83 457 6658.16 519H6507.16C6499.16 495 6485.5 476.333 6466.16 463C6447.5 449 6424.16 442 6396.16 442C6356.16 442 6324.5 456.667 6301.16 486C6277.83 514.667 6266.16 555.667 6266.16 609C6266.16 661.667 6277.83 702.667 6301.16 732C6324.5 760.667 6356.16 775 6396.16 775C6452.83 775 6489.83 749.667 6507.16 699H6658.16C6642.83 759 6612.5 806.667 6567.16 842C6521.83 877.333 6465.16 895 6397.16 895C6343.83 895 6296.5 883.333 6255.16 860C6213.83 836 6181.5 802.667 6158.16 760C6134.83 716.667 6123.16 666.333 6123.16 609Z" fill="#2B2B2B"/>
<path d="M654.836 862.955L654.997 862.901L527.349 715.977C526.234 715.992 525.118 716 524 716C391.452 716 284 608.548 284 476C284 343.452 391.452 236 524 236C656.548 236 764 343.452 764 476C764 516.931 753.753 555.469 735.686 589.189L736 589L853.432 721.423C907.1 651.486 939 563.968 939 469C939 239.802 753.198 54 524 54C294.802 54 109 239.802 109 469C109 684.363 273.048 861.41 483 882H671.5L654.836 862.955Z" fill="#2B2B2B"/>
<path d="M672.5 583.5L469.5 584L731.5 884.5L940 886L672.5 583.5Z" fill="#2B2B2B"/>
<path d="M1564 332V886H1423V816C1405 840 1381.33 859 1352 873C1323.33 886.333 1292 893 1258 893C1214.67 893 1176.33 884 1143 866C1109.67 847.333 1083.33 820.333 1064 785C1045.33 749 1036 706.333 1036 657V332H1176V637C1176 681 1187 715 1209 739C1231 762.333 1261 774 1299 774C1337.67 774 1368 762.333 1390 739C1412 715 1423 681 1423 637V332H1564ZM1666.13 607C1666.13 551 1677.13 501.333 1699.13 458C1721.8 414.667 1752.13 381.333 1790.13 358C1828.8 334.667 1871.8 323 1919.13 323C1960.47 323 1996.47 331.333 2027.13 348C2058.47 364.667 2083.47 385.667 2102.13 411V332H2243.13V886H2102.13V805C2084.13 831 2059.13 852.667 2027.13 870C1995.8 886.667 1959.47 895 1918.13 895C1871.47 895 1828.8 883 1790.13 859C1752.13 835 1721.8 801.333 1699.13 758C1677.13 714 1666.13 663.667 1666.13 607ZM2102.13 609C2102.13 575 2095.47 546 2082.13 522C2068.8 497.333 2050.8 478.667 2028.13 466C2005.47 452.667 1981.13 446 1955.13 446C1929.13 446 1905.13 452.333 1883.13 465C1861.13 477.667 1843.13 496.333 1829.13 521C1815.8 545 1809.13 573.667 1809.13 607C1809.13 640.333 1815.8 669.667 1829.13 695C1843.13 719.667 1861.13 738.667 1883.13 752C1905.8 765.333 1929.8 772 1955.13 772C1981.13 772 2005.47 765.667 2028.13 753C2050.8 739.667 2068.8 721 2082.13 697C2095.47 672.333 2102.13 643 2102.13 609ZM2686.87 324C2752.87 324 2806.2 345 2846.87 387C2887.53 428.333 2907.87 486.333 2907.87 561V886H2767.87V580C2767.87 536 2756.87 502.333 2734.87 479C2712.87 455 2682.87 443 2644.87 443C2606.2 443 2575.53 455 2552.87 479C2530.87 502.333 2519.87 536 2519.87 580V886H2379.87V332H2519.87V401C2538.53 377 2562.2 358.333 2590.87 345C2620.2 331 2652.2 324 2686.87 324ZM3204 447V715C3204 733.667 3208.33 747.333 3217 756C3226.33 764 3241.67 768 3263 768H3328V886H3240C3122 886 3063 828.667 3063 714V447H2997V332H3063V195H3204V332H3328V447H3204ZM3392.7 607C3392.7 551 3403.7 501.333 3425.7 458C3448.36 414.667 3478.7 381.333 3516.7 358C3555.36 334.667 3598.36 323 3645.7 323C3687.03 323 3723.03 331.333 3753.7 348C3785.03 364.667 3810.03 385.667 3828.7 411V332H3969.7V886H3828.7V805C3810.7 831 3785.7 852.667 3753.7 870C3722.36 886.667 3686.03 895 3644.7 895C3598.03 895 3555.36 883 3516.7 859C3478.7 835 3448.36 801.333 3425.7 758C3403.7 714 3392.7 663.667 3392.7 607ZM3828.7 609C3828.7 575 3822.03 546 3808.7 522C3795.36 497.333 3777.36 478.667 3754.7 466C3732.03 452.667 3707.7 446 3681.7 446C3655.7 446 3631.7 452.333 3609.7 465C3587.7 477.667 3569.7 496.333 3555.7 521C3542.36 545 3535.7 573.667 3535.7 607C3535.7 640.333 3542.36 669.667 3555.7 695C3569.7 719.667 3587.7 738.667 3609.7 752C3632.36 765.333 3656.36 772 3681.7 772C3707.7 772 3732.03 765.667 3754.7 753C3777.36 739.667 3795.36 721 3808.7 697C3822.03 672.333 3828.7 643 3828.7 609ZM4246.43 775H4476.43V886H4106.43V188H4246.43V775ZM4811.41 895C4758.08 895 4710.08 883.333 4667.41 860C4624.75 836 4591.08 802.333 4566.41 759C4542.41 715.667 4530.41 665.667 4530.41 609C4530.41 552.333 4542.75 502.333 4567.41 459C4592.75 415.667 4627.08 382.333 4670.41 359C4713.75 335 4762.08 323 4815.41 323C4868.75 323 4917.08 335 4960.41 359C5003.75 382.333 5037.75 415.667 5062.41 459C5087.75 502.333 5100.41 552.333 5100.41 609C5100.41 665.667 5087.41 715.667 5061.41 759C5036.08 802.333 5001.41 836 4957.41 860C4914.08 883.333 4865.41 895 4811.41 895ZM4811.41 773C4836.75 773 4860.41 767 4882.41 755C4905.08 742.333 4923.08 723.667 4936.41 699C4949.75 674.333 4956.41 644.333 4956.41 609C4956.41 556.333 4942.41 516 4914.41 488C4887.08 459.333 4853.41 445 4813.41 445C4773.41 445 4739.75 459.333 4712.41 488C4685.75 516 4672.41 556.333 4672.41 609C4672.41 661.667 4685.41 702.333 4711.41 731C4738.08 759 4771.41 773 4811.41 773ZM5420.11 323C5461.44 323 5497.78 331.333 5529.11 348C5560.44 364 5585.11 385 5603.11 411V332H5744.11V890C5744.11 941.333 5733.78 987 5713.11 1027C5692.44 1067.67 5661.44 1099.67 5620.11 1123C5578.78 1147 5528.78 1159 5470.11 1159C5391.44 1159 5326.78 1140.67 5276.11 1104C5226.11 1067.33 5197.78 1017.33 5191.11 954H5330.11C5337.44 979.333 5353.11 999.333 5377.11 1014C5401.78 1029.33 5431.44 1037 5466.11 1037C5506.78 1037 5539.78 1024.67 5565.11 1000C5590.44 976 5603.11 939.333 5603.11 890V804C5585.11 830 5560.11 851.667 5528.11 869C5496.78 886.333 5460.78 895 5420.11 895C5373.44 895 5330.78 883 5292.11 859C5253.44 835 5222.78 801.333 5200.11 758C5178.11 714 5167.11 663.667 5167.11 607C5167.11 551 5178.11 501.333 5200.11 458C5222.78 414.667 5253.11 381.333 5291.11 358C5329.78 334.667 5372.78 323 5420.11 323ZM5603.11 609C5603.11 575 5596.44 546 5583.11 522C5569.78 497.333 5551.78 478.667 5529.11 466C5506.44 452.667 5482.11 446 5456.11 446C5430.11 446 5406.11 452.333 5384.11 465C5362.11 477.667 5344.11 496.333 5330.11 521C5316.78 545 5310.11 573.667 5310.11 607C5310.11 640.333 5316.78 669.667 5330.11 695C5344.11 719.667 5362.11 738.667 5384.11 752C5406.78 765.333 5430.78 772 5456.11 772C5482.11 772 5506.44 765.667 5529.11 753C5551.78 739.667 5569.78 721 5583.11 697C5596.44 672.333 5603.11 643 5603.11 609ZM5951.84 266C5927.18 266 5906.51 258.333 5889.84 243C5873.84 227 5865.84 207.333 5865.84 184C5865.84 160.667 5873.84 141.333 5889.84 126C5906.51 110 5927.18 102 5951.84 102C5976.51 102 5996.84 110 6012.84 126C6029.51 141.333 6037.84 160.667 6037.84 184C6037.84 207.333 6029.51 227 6012.84 243C5996.84 258.333 5976.51 266 5951.84 266ZM6020.84 332V886H5880.84V332H6020.84ZM6123.16 609C6123.16 551.667 6134.83 501.667 6158.16 459C6181.5 415.667 6213.83 382.333 6255.16 359C6296.5 335 6343.83 323 6397.16 323C6465.83 323 6522.5 340.333 6567.16 375C6612.5 409 6642.83 457 6658.16 519H6507.16C6499.16 495 6485.5 476.333 6466.16 463C6447.5 449 6424.16 442 6396.16 442C6356.16 442 6324.5 456.667 6301.16 486C6277.83 514.667 6266.16 555.667 6266.16 609C6266.16 661.667 6277.83 702.667 6301.16 732C6324.5 760.667 6356.16 775 6396.16 775C6452.83 775 6489.83 749.667 6507.16 699H6658.16C6642.83 759 6612.5 806.667 6567.16 842C6521.83 877.333 6465.16 895 6397.16 895C6343.83 895 6296.5 883.333 6255.16 860C6213.83 836 6181.5 802.667 6158.16 760C6134.83 716.667 6123.16 666.333 6123.16 609Z" fill="#2B2B2B"/>
</g>
<defs>
<clipPath id="clip0_23_3">
<rect width="6800" height="1200" fill="white"/>
</clipPath>
</defs>
</svg>
